{"glyphs":{"0":{"ha":693,"x_min":0,"x_max":0,"o":"m 344 903 b 658 432 569 903 660 729 b 344 -12 660 133 599 -12 b 36 431 96 -12 35 131 b 344 903 36 729 125 903 m 346 453 b 539 594 478 453 539 493 b 344 735 539 692 475 735 b 154 594 221 735 154 692 b 346 453 154 494 218 453 "},"1":{"ha":451,"x_min":0,"x_max":0,"o":"m 235 900 b 318 821 289 900 310 872 b 289 586 328 736 283 663 b 438 178 294 396 440 413 b 231 -14 433 33 353 -14 b 22 189 107 -14 22 33 b 189 619 22 444 189 438 b 122 728 189 710 165 724 b 67 782 79 732 67 751 b 235 900 67 842 150 900 "},"2":{"ha":683,"x_min":0,"x_max":0,"o":"m 228 499 b 299 451 228 465 256 451 b 535 471 371 451 432 471 b 674 247 638 471 674 394 b 346 -12 674 68 596 -12 b 10 281 78 -12 10 81 b 299 604 10 508 106 575 b 479 689 428 621 479 638 b 367 757 479 738 429 757 b 135 689 247 757 196 689 b 68 764 92 689 68 718 b 361 897 68 847 156 897 b 621 729 558 897 621 826 b 350 575 621 614 531 601 b 228 499 257 561 228 538 "},"3":{"ha":682,"x_min":0,"x_max":0,"o":"m 339 619 b 474 692 424 619 474 642 b 369 760 474 740 428 760 b 146 699 254 760 214 699 b 79 772 101 699 79 729 b 364 900 79 858 168 900 b 604 753 543 900 604 846 b 446 610 604 663 556 631 b 422 589 429 606 422 600 b 447 568 422 578 429 571 b 668 293 601 551 668 486 b 333 -14 668 94 579 -14 b 10 279 89 -14 10 67 b 154 496 10 418 67 496 b 381 418 251 496 299 418 b 443 475 422 418 443 435 b 322 556 443 529 404 556 b 185 547 274 556 229 547 b 128 590 147 547 128 563 b 186 633 128 621 149 633 b 339 619 239 633 276 619 "},"4":{"ha":654,"x_min":0,"x_max":0,"o":"m 401 -14 b 157 172 257 -14 157 25 b 394 521 157 353 394 410 b 354 558 394 546 379 558 b 110 501 304 558 203 501 b 24 572 53 501 26 519 b 47 704 24 618 42 646 b 53 814 51 747 46 771 b 156 900 61 878 97 900 b 243 819 219 900 242 875 b 138 643 244 728 138 708 b 233 597 139 611 165 597 b 418 664 374 599 418 621 b 407 810 419 704 406 758 b 474 874 408 854 433 874 b 542 813 513 874 535 857 b 521 564 550 740 515 644 b 643 182 525 396 646 363 b 401 -14 640 39 551 -14 "},"5":{"ha":685,"x_min":0,"x_max":0,"o":"m 201 671 b 282 599 201 617 235 599 b 482 617 343 599 400 617 b 669 343 599 617 669 550 b 350 -14 669 117 589 -14 b 17 274 114 -14 17 72 b 138 489 17 410 57 489 b 390 418 242 489 289 418 b 458 483 429 418 458 444 b 344 558 458 536 415 558 b 144 543 271 558 200 543 b 86 599 99 543 86 567 b 94 688 86 622 94 651 b 89 786 94 713 88 753 b 351 899 92 865 140 899 b 611 786 564 899 611 858 b 536 717 611 746 586 717 b 288 743 463 717 364 743 b 201 671 228 743 201 728 "},"6":{"ha":672,"x_min":0,"x_max":0,"o":"m 411 640 b 653 325 569 640 653 575 b 343 -14 653 125 593 -14 b 24 417 86 -14 24 125 b 360 899 24 750 136 899 b 592 781 507 899 592 853 b 528 708 592 738 569 708 b 301 763 458 708 413 763 b 151 643 225 763 151 724 b 190 606 151 618 163 606 b 411 640 242 606 310 640 m 326 438 b 510 517 467 438 510 464 b 360 592 510 565 465 592 b 138 501 225 592 138 556 b 326 438 138 458 182 438 "},"7":{"ha":626,"x_min":0,"x_max":0,"o":"m 417 685 b 346 725 417 714 396 725 b 119 694 274 725 204 694 b 38 782 71 694 38 724 b 317 896 38 860 89 896 b 593 767 532 896 588 856 b 528 622 597 693 582 663 b 454 486 482 588 454 543 b 531 186 451 390 536 328 b 304 -12 522 86 469 -12 b 74 208 143 -12 74 78 b 317 578 74 364 169 465 b 417 685 399 638 417 657 "},"8":{"ha":710,"x_min":0,"x_max":0,"o":"m 354 -14 b 15 288 111 -14 15 93 b 219 568 15 475 76 544 b 249 590 240 571 249 578 b 222 614 249 601 240 608 b 82 751 126 633 82 668 b 354 900 82 846 160 900 b 626 751 550 900 626 846 b 488 614 626 668 582 633 b 461 590 468 608 461 601 b 490 568 461 578 469 571 b 694 288 632 544 694 475 b 354 -14 694 93 599 -14 m 354 617 b 510 696 446 617 510 643 b 354 772 510 749 447 772 b 199 696 263 772 199 749 b 354 617 199 643 264 617 m 354 414 b 481 483 446 414 481 435 b 354 564 481 539 433 564 b 228 483 276 564 228 539 b 354 414 228 435 263 414 "},"9":{"ha":676,"x_min":0,"x_max":0,"o":"m 249 556 b 79 700 135 556 79 586 b 332 899 79 815 146 899 b 651 421 556 899 651 744 b 321 -14 651 108 567 -14 b 18 282 115 -14 18 93 b 157 511 18 418 64 511 b 428 431 269 511 304 431 b 536 546 488 431 536 468 b 493 593 536 578 524 593 b 249 556 439 593 365 556 m 338 753 b 168 672 215 753 168 725 b 303 604 168 626 207 604 b 508 681 443 604 510 633 b 338 753 510 729 464 753 "},"A":{"ha":814,"x_min":0,"x_max":0,"o":"m 407 900 b 696 624 667 900 701 792 b 806 175 686 413 808 349 b 615 -12 804 44 736 -12 b 428 174 499 -12 428 46 b 556 457 428 342 556 378 b 407 513 556 492 533 513 b 258 457 281 513 258 492 b 386 174 258 378 386 342 b 199 -12 386 46 315 -12 b 7 175 76 -12 10 44 b 118 624 6 349 128 413 b 407 900 113 793 147 900 m 407 558 b 590 644 543 558 590 582 b 407 738 590 719 532 738 b 222 644 282 738 222 719 b 407 558 222 582 271 558 "},"B":{"ha":756,"x_min":0,"x_max":0,"o":"m 328 614 b 544 700 472 614 544 647 b 361 769 544 746 492 769 b 197 686 254 769 197 749 b 328 614 197 640 229 614 m 363 -12 b 31 196 122 -12 35 67 b 107 543 28 333 103 422 b 83 783 114 635 74 693 b 364 899 92 863 160 899 b 669 754 588 899 669 851 b 513 608 669 661 614 629 b 489 589 496 606 489 599 b 513 571 489 578 496 572 b 740 315 675 553 740 486 b 363 -12 740 101 643 -14 m 358 556 b 207 472 249 556 207 524 b 361 393 207 417 267 393 b 549 474 490 393 549 418 b 358 556 549 529 488 556 "},"C":{"ha":701,"x_min":0,"x_max":0,"o":"m 29 432 b 400 899 29 726 128 899 b 631 778 564 896 631 858 b 567 699 631 736 615 699 b 351 742 497 699 450 742 b 200 599 264 742 200 700 b 321 483 200 517 256 483 b 544 525 422 483 475 525 b 682 299 639 525 682 439 b 394 -15 682 83 592 -17 b 29 432 101 -17 29 129 "},"D":{"ha":763,"x_min":0,"x_max":0,"o":"m 200 606 b 368 421 200 457 269 421 b 603 583 529 421 603 468 b 358 738 603 688 524 738 b 200 606 251 738 200 710 m 357 -15 b 32 182 122 -15 35 61 b 108 540 29 326 103 439 b 83 785 114 631 74 690 b 332 899 92 864 158 899 b 733 433 622 899 735 738 b 357 -15 735 139 644 -15 "},"E":{"ha":721,"x_min":0,"x_max":0,"o":"m 367 -15 b 31 204 121 -15 33 69 b 122 558 28 351 115 464 b 103 783 128 639 93 700 b 347 897 111 863 169 897 b 647 792 583 897 647 864 b 588 736 647 765 633 736 b 354 771 518 736 471 771 b 239 688 286 771 239 753 b 321 604 239 646 264 604 b 549 642 407 604 457 642 b 631 571 606 642 631 621 b 550 506 631 533 606 506 b 322 561 476 506 404 561 b 249 489 269 561 249 531 b 381 399 249 417 310 399 b 581 421 461 399 504 421 b 706 229 669 421 706 350 b 367 -15 706 61 626 -15 "},"F":{"ha":668,"x_min":0,"x_max":0,"o":"m 506 151 b 269 -12 506 54 435 -12 b 22 181 114 -12 26 47 b 108 583 21 353 100 471 b 96 774 114 649 89 703 b 332 897 104 849 151 897 b 657 782 590 897 657 860 b 601 708 657 747 644 708 b 360 742 529 708 478 742 b 232 642 276 742 232 718 b 328 553 232 581 261 553 b 550 589 410 553 458 589 b 639 507 615 589 639 563 b 565 435 639 468 614 435 b 338 497 481 435 411 497 b 292 456 303 497 292 478 b 506 151 292 367 506 294 "},"G":{"ha":799,"x_min":0,"x_max":0,"o":"m 690 443 b 788 108 690 342 788 250 b 686 -4 786 38 753 -4 b 565 115 606 -4 565 32 b 624 368 565 213 624 289 b 582 413 624 397 608 413 b 525 343 553 413 528 393 b 313 -8 514 131 479 -8 b 36 403 101 -8 36 125 b 453 899 36 728 154 899 b 719 771 638 897 719 847 b 653 710 719 731 700 710 b 374 742 560 710 488 742 b 206 588 278 742 206 689 b 432 439 206 490 278 439 b 588 492 565 439 586 468 b 461 593 590 554 458 540 b 621 646 464 633 508 646 b 771 585 726 646 764 626 b 690 443 776 532 685 533 "},"H":{"ha":872,"x_min":0,"x_max":0,"o":"m 658 -14 b 457 176 538 -14 457 36 b 593 488 457 353 593 406 b 438 543 593 524 565 543 b 279 488 307 543 279 524 b 417 176 279 406 417 353 b 215 -14 417 36 338 -14 b 15 179 99 -14 19 35 b 151 574 13 356 146 411 b 118 825 156 690 108 744 b 214 903 126 883 163 903 b 311 826 269 903 307 882 b 256 660 311 758 253 731 b 438 593 258 613 281 593 b 618 660 593 593 615 613 b 563 826 619 731 561 758 b 658 903 567 882 604 903 b 756 825 711 903 747 883 b 722 574 765 744 718 690 b 858 179 728 411 861 356 b 658 -14 854 35 776 -14 "},"I":{"ha":443,"x_min":0,"x_max":0,"o":"m 221 903 b 318 824 272 903 310 883 b 281 581 328 744 275 681 b 429 179 286 419 432 372 b 222 -14 425 33 344 -14 b 15 179 100 -14 19 33 b 163 581 13 372 157 419 b 124 824 168 681 115 744 b 221 903 133 883 169 903 "},"J":{"ha":615,"x_min":0,"x_max":0,"o":"m 396 901 b 496 825 451 901 485 878 b 479 590 506 733 471 664 b 590 221 486 464 596 385 b 322 -10 585 86 499 -10 b 15 300 101 -10 15 100 b 161 550 15 442 65 550 b 304 482 239 550 244 482 b 343 688 356 482 394 556 b 396 901 278 790 290 901 "},"K":{"ha":819,"x_min":0,"x_max":0,"o":"m 332 503 b 276 446 294 503 276 481 b 407 167 276 353 407 303 b 222 -14 407 44 331 -14 b 24 175 94 -14 26 56 b 136 593 21 324 131 468 b 101 824 142 665 93 746 b 199 899 111 874 144 899 b 263 718 289 899 300 836 b 324 561 236 613 251 561 b 453 719 390 561 414 599 b 646 899 490 829 533 899 b 750 807 719 899 750 871 b 682 728 750 758 731 728 b 631 729 667 728 647 729 b 465 563 543 729 465 640 b 539 496 465 518 492 496 b 681 524 596 496 632 524 b 813 267 775 524 813 407 b 635 -14 813 71 754 -14 b 442 260 508 -14 450 74 b 332 503 435 426 399 503 "},"L":{"ha":581,"x_min":0,"x_max":0,"o":"m 440 492 b 574 235 522 492 574 415 b 307 -11 574 72 501 -11 b 29 207 99 -11 32 89 b 146 589 25 385 140 469 b 124 819 151 658 114 742 b 224 899 132 875 168 899 b 314 818 279 899 311 872 b 251 621 315 743 250 696 b 339 485 253 525 290 485 b 440 492 378 485 403 492 "},"M":{"ha":1081,"x_min":0,"x_max":0,"o":"m 540 528 b 636 703 615 528 639 597 b 819 899 632 835 628 899 b 983 811 932 899 975 876 b 944 583 992 732 940 683 b 1065 178 954 397 1067 376 b 883 -12 1061 42 986 -12 b 725 175 781 -12 724 42 b 851 585 724 382 850 383 b 786 719 850 689 839 719 b 676 542 714 719 675 638 b 700 179 675 410 700 315 b 540 -4 700 56 643 -4 b 381 179 438 -4 381 56 b 406 542 381 315 406 410 b 294 719 406 638 367 719 b 229 585 242 719 229 689 b 357 175 229 383 357 382 b 199 -12 357 42 299 -12 b 15 178 94 -12 19 42 b 136 583 13 376 125 397 b 97 811 139 683 89 732 b 263 899 106 876 149 899 b 444 703 453 899 450 835 b 540 528 442 597 465 528 "},"N":{"ha":874,"x_min":0,"x_max":0,"o":"m 661 -7 b 460 233 542 -7 467 56 b 310 717 442 599 390 717 b 251 581 265 717 251 692 b 410 181 251 417 410 361 b 219 -7 410 40 331 -7 b 15 186 100 -7 19 42 b 156 581 13 379 144 401 b 119 813 160 689 110 733 b 243 897 128 878 168 897 b 438 715 388 897 414 854 b 572 547 456 610 513 547 b 635 636 622 547 633 579 b 582 824 638 732 581 749 b 665 897 583 881 617 897 b 760 818 715 897 750 879 b 725 581 768 733 718 690 b 840 190 738 406 843 360 b 661 -7 838 40 769 -7 "},"O":{"ha":786,"x_min":0,"x_max":0,"o":"m 390 903 b 750 432 649 903 753 729 b 390 -12 753 131 683 -12 b 36 431 104 -12 35 131 b 390 903 36 729 139 903 m 390 451 b 615 585 544 451 615 490 b 390 735 615 690 542 735 b 168 585 246 735 168 690 b 390 451 168 492 243 451 "},"P":{"ha":747,"x_min":0,"x_max":0,"o":"m 599 300 b 326 425 478 300 404 425 b 288 386 296 425 288 406 b 442 140 288 318 442 265 b 250 -8 442 58 392 -8 b 19 214 101 -8 22 61 b 92 583 17 372 86 481 b 78 776 97 651 68 708 b 340 901 88 856 167 901 b 694 739 514 901 669 861 b 697 535 722 667 697 618 b 713 392 697 475 724 449 b 599 300 701 333 653 300 m 200 614 b 392 508 200 551 247 508 b 585 618 496 508 585 535 b 364 729 585 693 508 729 b 200 614 274 729 200 708 "},"Q":{"ha":782,"x_min":0,"x_max":0,"o":"m 486 13 b 354 -10 469 13 436 -10 b 36 428 104 -10 36 132 b 390 903 36 724 135 903 b 750 431 653 903 750 728 b 700 114 750 208 700 151 b 775 -36 700 53 775 31 b 658 -108 775 -78 754 -108 b 522 -29 561 -108 528 -81 b 486 13 521 -3 511 13 m 390 451 b 615 585 544 451 615 490 b 390 735 615 690 542 735 b 168 585 246 735 168 690 b 390 451 168 492 243 451 "},"R":{"ha":797,"x_min":0,"x_max":0,"o":"m 711 714 b 492 529 711 589 628 551 b 447 497 460 524 447 514 b 517 460 447 474 468 460 b 649 481 567 460 608 481 b 790 256 744 481 790 400 b 624 -12 790 82 742 -12 b 435 293 494 -12 446 71 b 308 486 431 419 378 486 b 258 449 272 486 258 469 b 399 161 258 372 399 308 b 219 -12 399 47 328 -12 b 19 188 96 -12 22 51 b 99 560 17 346 93 457 b 85 768 104 631 75 686 b 340 901 94 850 168 901 b 711 714 579 901 711 851 m 199 642 b 351 549 199 581 233 549 b 576 650 478 549 576 579 b 378 740 576 708 522 740 b 199 642 279 740 199 722 "},"S":{"ha":688,"x_min":0,"x_max":0,"o":"m 482 488 b 343 567 482 538 443 561 b 60 728 150 581 60 608 b 347 897 60 824 126 897 b 625 775 546 897 625 851 b 558 704 625 732 600 704 b 322 764 494 704 439 764 b 201 697 253 764 201 744 b 390 617 201 647 254 626 b 679 342 583 600 679 539 b 339 -12 679 124 597 -12 b 13 246 96 -12 13 86 b 165 485 13 393 71 485 b 407 422 268 485 308 422 b 482 488 449 422 482 442 "},"T":{"ha":654,"x_min":0,"x_max":0,"o":"m 383 606 b 565 188 383 451 565 399 b 326 -7 565 44 475 -7 b 89 188 179 -7 89 44 b 271 606 89 399 271 451 b 199 724 271 711 244 724 b 69 693 144 724 107 693 b 19 767 32 693 19 731 b 326 897 19 856 79 897 b 635 767 575 897 635 856 b 585 693 635 731 622 693 b 456 724 547 693 510 724 b 383 606 410 724 383 711 "},"U":{"ha":851,"x_min":0,"x_max":0,"o":"m 290 -8 b 36 218 125 -8 39 74 b 147 579 33 382 142 457 b 125 826 154 656 117 744 b 219 903 135 881 168 903 b 313 826 274 903 308 879 b 256 613 315 743 250 675 b 415 514 260 532 310 514 b 589 626 540 514 585 564 b 546 819 593 693 543 753 b 635 904 550 865 579 904 b 724 828 690 904 715 878 b 696 590 732 761 690 678 b 840 144 701 449 843 339 b 711 -7 838 49 797 -7 b 592 139 638 -7 592 33 b 644 417 592 244 644 342 b 592 481 644 464 626 481 b 526 389 557 481 529 453 b 529 211 525 329 532 279 b 290 -8 521 42 438 -8 "},"V":{"ha":792,"x_min":0,"x_max":0,"o":"m 396 485 b 569 686 535 485 585 539 b 656 900 561 796 557 900 b 744 833 707 900 736 878 b 700 608 757 757 706 689 b 679 269 692 499 704 421 b 396 -10 647 90 575 -10 b 114 269 217 -10 146 90 b 92 608 88 421 100 499 b 49 833 86 689 35 758 b 139 900 56 878 86 900 b 222 689 238 900 233 799 b 396 485 206 542 258 485 "},"W":{"ha":1178,"x_min":0,"x_max":0,"o":"m 589 497 b 538 339 539 497 529 446 b 288 -10 561 104 511 -10 b 36 207 115 -10 39 71 b 153 575 33 375 147 451 b 121 821 158 653 111 736 b 210 899 129 876 161 899 b 265 699 289 899 306 824 b 397 528 232 590 250 528 b 521 700 543 528 561 599 b 589 896 483 821 499 896 b 657 700 678 896 694 821 b 781 528 615 599 633 528 b 911 699 928 528 946 590 b 968 899 871 824 889 899 b 1057 821 1017 899 1049 876 b 1024 575 1067 736 1018 653 b 1142 207 1029 451 1144 375 b 889 -10 1139 71 1063 -10 b 640 339 667 -10 618 104 b 589 497 647 446 639 497 "},"X":{"ha":883,"x_min":0,"x_max":0,"o":"m 442 561 b 419 551 433 561 426 558 b 378 457 389 515 378 493 b 428 193 378 376 426 338 b 222 -12 428 60 360 -12 b 14 217 93 -12 14 40 b 231 507 14 404 101 478 b 374 593 317 521 374 565 b 263 681 374 614 328 664 b 118 810 175 715 118 738 b 225 901 118 874 161 901 b 346 767 314 901 344 833 b 424 640 356 717 372 686 b 442 633 431 636 436 633 b 458 640 447 633 453 636 b 538 767 511 686 528 717 b 658 901 538 833 569 901 b 765 810 722 901 765 874 b 621 681 765 738 707 715 b 508 593 556 664 508 615 b 651 507 508 564 567 521 b 869 217 782 478 869 404 b 661 -12 869 40 790 -12 b 456 193 524 -12 456 60 b 506 457 456 338 506 376 b 464 551 506 492 494 515 b 442 561 457 558 450 561 "},"Y":{"ha":833,"x_min":0,"x_max":0,"o":"m 414 -8 b 28 208 111 -8 28 57 b 194 439 28 335 85 439 b 475 393 300 439 383 393 b 576 478 529 393 576 408 b 515 538 576 522 547 538 b 260 499 444 538 375 499 b 157 571 181 499 160 529 b 163 658 154 597 161 633 b 129 833 165 714 125 772 b 219 901 135 881 168 901 b 264 689 325 901 314 796 b 407 576 238 631 265 576 b 571 699 592 576 600 642 b 628 903 536 792 533 903 b 718 828 685 903 710 878 b 690 601 726 765 685 685 b 785 222 697 411 789 371 b 414 -8 779 68 651 -8 "},"Z":{"ha":713,"x_min":0,"x_max":0,"o":"m 458 593 b 336 483 358 544 336 514 b 396 439 336 451 361 439 b 557 467 446 439 499 467 b 696 254 654 467 696 388 b 357 -7 696 71 621 -7 b 17 243 96 -7 17 51 b 331 604 17 393 89 490 b 447 700 411 643 447 668 b 390 742 447 729 428 742 b 131 708 294 742 194 708 b 53 781 74 708 53 746 b 374 896 53 854 129 896 b 654 782 585 896 654 868 b 458 593 654 708 614 663 "},"a":{"ha":814,"x_min":0,"x_max":0,"o":"m 407 900 b 696 624 667 900 701 792 b 806 175 686 413 808 349 b 615 -12 804 44 736 -12 b 428 174 499 -12 428 46 b 556 457 428 342 556 378 b 407 513 556 492 533 513 b 258 457 281 513 258 492 b 386 174 258 378 386 342 b 199 -12 386 46 315 -12 b 7 175 76 -12 10 44 b 118 624 6 349 128 413 b 407 900 113 793 147 900 m 407 558 b 590 644 543 558 590 582 b 407 738 590 719 532 738 b 222 644 282 738 222 719 b 407 558 222 582 271 558 "},"b":{"ha":756,"x_min":0,"x_max":0,"o":"m 328 614 b 544 700 472 614 544 647 b 361 769 544 746 492 769 b 197 686 254 769 197 749 b 328 614 197 640 229 614 m 363 -12 b 31 196 122 -12 35 67 b 107 543 28 333 103 422 b 83 783 114 635 74 693 b 364 899 92 863 160 899 b 669 754 588 899 669 851 b 513 608 669 661 614 629 b 489 589 496 606 489 599 b 513 571 489 578 496 572 b 740 315 675 553 740 486 b 363 -12 740 101 643 -14 m 358 556 b 207 472 249 556 207 524 b 361 393 207 417 267 393 b 549 474 490 393 549 418 b 358 556 549 529 488 556 "},"c":{"ha":701,"x_min":0,"x_max":0,"o":"m 29 432 b 400 899 29 726 128 899 b 631 778 564 896 631 858 b 567 699 631 736 615 699 b 351 742 497 699 450 742 b 200 599 264 742 200 700 b 321 483 200 517 256 483 b 544 525 422 483 475 525 b 682 299 639 525 682 439 b 394 -15 682 83 592 -17 b 29 432 101 -17 29 129 "},"d":{"ha":763,"x_min":0,"x_max":0,"o":"m 200 606 b 368 421 200 457 269 421 b 603 583 529 421 603 468 b 358 738 603 688 524 738 b 200 606 251 738 200 710 m 357 -15 b 32 182 122 -15 35 61 b 108 540 29 326 103 439 b 83 785 114 631 74 690 b 332 899 92 864 158 899 b 733 433 622 899 735 738 b 357 -15 735 139 644 -15 "},"e":{"ha":721,"x_min":0,"x_max":0,"o":"m 367 -15 b 31 204 121 -15 33 69 b 122 558 28 351 115 464 b 103 783 128 639 93 700 b 347 897 111 863 169 897 b 647 792 583 897 647 864 b 588 736 647 765 633 736 b 354 771 518 736 471 771 b 239 688 286 771 239 753 b 321 604 239 646 264 604 b 549 642 407 604 457 642 b 631 571 606 642 631 621 b 550 506 631 533 606 506 b 322 561 476 506 404 561 b 249 489 269 561 249 531 b 381 399 249 417 310 399 b 581 421 461 399 504 421 b 706 229 669 421 706 350 b 367 -15 706 61 626 -15 "},"f":{"ha":667,"x_min":0,"x_max":0,"o":"m 506 151 b 269 -12 506 54 435 -12 b 22 181 114 -12 26 47 b 108 583 21 353 100 471 b 96 774 114 649 89 703 b 332 897 104 849 151 897 b 657 782 590 897 657 860 b 601 708 657 747 644 708 b 360 742 529 708 478 742 b 232 642 276 742 232 718 b 328 553 232 581 261 553 b 550 589 410 553 458 589 b 639 507 615 589 639 563 b 565 435 639 468 614 435 b 338 497 481 435 411 497 b 292 456 303 497 292 478 b 506 151 292 367 506 294 "},"g":{"ha":799,"x_min":0,"x_max":0,"o":"m 690 443 b 788 108 690 342 788 250 b 686 -4 786 38 753 -4 b 565 115 606 -4 565 32 b 624 368 565 213 624 289 b 582 413 624 397 608 413 b 525 343 553 413 528 393 b 313 -8 514 131 479 -8 b 36 403 101 -8 36 125 b 453 899 36 728 154 899 b 719 771 638 897 719 847 b 653 710 719 731 700 710 b 374 742 560 710 488 742 b 206 588 278 742 206 689 b 432 439 206 490 278 439 b 588 492 565 439 586 468 b 461 593 590 554 458 540 b 621 646 464 633 508 646 b 771 585 726 646 764 626 b 690 443 776 532 685 533 "},"h":{"ha":872,"x_min":0,"x_max":0,"o":"m 658 -14 b 457 176 538 -14 457 36 b 593 488 457 353 593 406 b 438 543 593 524 565 543 b 279 488 307 543 279 524 b 417 176 279 406 417 353 b 215 -14 417 36 338 -14 b 15 179 99 -14 19 35 b 151 574 13 356 146 411 b 118 825 156 690 108 744 b 214 903 126 883 163 903 b 311 826 269 903 307 882 b 256 660 311 758 253 731 b 438 593 258 613 281 593 b 618 660 593 593 615 613 b 563 826 619 731 561 758 b 658 903 567 882 604 903 b 756 825 711 903 747 883 b 722 574 765 744 718 690 b 858 179 728 411 861 356 b 658 -14 854 35 776 -14 "},"i":{"ha":443,"x_min":0,"x_max":0,"o":"m 221 903 b 318 824 272 903 310 883 b 281 581 328 744 275 681 b 429 179 286 419 432 372 b 222 -14 425 33 344 -14 b 15 179 100 -14 19 33 b 163 581 13 372 157 419 b 124 824 168 681 115 744 b 221 903 133 883 169 903 "},"j":{"ha":615,"x_min":0,"x_max":0,"o":"m 396 901 b 496 825 451 901 485 878 b 479 590 506 733 471 664 b 590 221 486 464 596 385 b 322 -10 585 86 499 -10 b 15 300 101 -10 15 100 b 161 550 15 442 65 550 b 304 482 239 550 244 482 b 343 688 356 482 394 556 b 396 901 278 790 290 901 "},"k":{"ha":819,"x_min":0,"x_max":0,"o":"m 332 503 b 276 446 294 503 276 481 b 407 167 276 353 407 303 b 222 -14 407 44 331 -14 b 24 175 94 -14 26 56 b 136 593 21 324 131 468 b 101 824 142 665 93 746 b 199 899 111 874 144 899 b 263 718 289 899 300 836 b 324 561 236 613 251 561 b 453 719 390 561 414 599 b 646 899 490 829 533 899 b 750 807 719 899 750 871 b 682 728 750 758 731 728 b 631 729 667 728 647 729 b 465 563 543 729 465 640 b 539 496 465 518 492 496 b 681 524 596 496 632 524 b 813 267 775 524 813 407 b 635 -14 813 71 754 -14 b 442 260 508 -14 450 74 b 332 503 435 426 399 503 "},"l":{"ha":581,"x_min":0,"x_max":0,"o":"m 440 492 b 574 235 522 492 574 415 b 307 -11 574 72 501 -11 b 29 207 99 -11 32 89 b 146 589 25 385 140 469 b 124 819 151 658 114 742 b 224 899 132 875 168 899 b 314 818 279 899 311 872 b 251 621 315 743 250 696 b 339 485 253 525 290 485 b 440 492 378 485 403 492 "},"m":{"ha":1081,"x_min":0,"x_max":0,"o":"m 540 528 b 636 703 615 528 639 597 b 819 899 632 835 628 899 b 983 811 932 899 975 876 b 944 583 992 732 940 683 b 1065 178 954 397 1067 376 b 883 -12 1061 42 986 -12 b 725 175 781 -12 724 42 b 851 585 724 382 850 383 b 786 719 850 689 839 719 b 676 542 714 719 675 638 b 700 179 675 410 700 315 b 540 -4 700 56 643 -4 b 381 179 438 -4 381 56 b 406 542 381 315 406 410 b 294 719 406 638 367 719 b 229 585 242 719 229 689 b 357 175 229 383 357 382 b 199 -12 357 42 299 -12 b 15 178 94 -12 19 42 b 136 583 13 376 125 397 b 97 811 139 683 89 732 b 263 899 106 876 149 899 b 444 703 453 899 450 835 b 540 528 442 597 465 528 "},"n":{"ha":872,"x_min":0,"x_max":0,"o":"m 661 -7 b 460 233 542 -7 467 56 b 310 717 442 599 390 717 b 251 581 265 717 251 692 b 410 181 251 417 410 361 b 219 -7 410 40 331 -7 b 15 186 100 -7 19 42 b 156 581 13 379 144 401 b 119 813 160 689 110 733 b 243 897 128 878 168 897 b 438 715 388 897 414 854 b 572 547 456 610 513 547 b 635 636 622 547 633 579 b 582 824 638 732 581 749 b 665 897 583 881 617 897 b 760 818 715 897 750 879 b 725 581 768 733 718 690 b 840 190 738 406 843 360 b 661 -7 838 40 769 -7 "},"o":{"ha":786,"x_min":0,"x_max":0,"o":"m 390 903 b 750 432 649 903 753 729 b 390 -12 753 131 683 -12 b 36 431 104 -12 35 131 b 390 903 36 729 139 903 m 390 451 b 615 585 544 451 615 490 b 390 735 615 690 542 735 b 168 585 246 735 168 690 b 390 451 168 492 243 451 "},"p":{"ha":747,"x_min":0,"x_max":0,"o":"m 599 300 b 326 425 478 300 404 425 b 288 386 296 425 288 406 b 442 140 288 318 442 265 b 250 -8 442 58 392 -8 b 19 214 101 -8 22 61 b 92 583 17 372 86 481 b 78 776 97 651 68 708 b 340 901 88 856 167 901 b 694 739 514 901 669 861 b 697 535 722 667 697 618 b 713 392 697 475 724 449 b 599 300 701 333 653 300 m 200 614 b 392 508 200 551 247 508 b 585 618 496 508 585 535 b 364 729 585 693 508 729 b 200 614 274 729 200 708 "},"q":{"ha":782,"x_min":0,"x_max":0,"o":"m 486 13 b 354 -10 469 13 436 -10 b 36 428 104 -10 36 132 b 390 903 36 724 135 903 b 750 431 653 903 750 728 b 700 114 750 208 700 151 b 775 -36 700 53 775 31 b 658 -108 775 -78 754 -108 b 522 -29 561 -108 528 -81 b 486 13 521 -3 511 13 m 390 451 b 615 585 544 451 615 490 b 390 735 615 690 542 735 b 168 585 246 735 168 690 b 390 451 168 492 243 451 "},"r":{"ha":797,"x_min":0,"x_max":0,"o":"m 711 714 b 492 529 711 589 628 551 b 447 497 460 524 447 514 b 517 460 447 474 468 460 b 649 481 567 460 608 481 b 790 256 744 481 790 400 b 624 -12 790 82 742 -12 b 435 293 494 -12 446 71 b 308 486 431 419 378 486 b 258 449 272 486 258 469 b 399 161 258 372 399 308 b 219 -12 399 47 328 -12 b 19 188 96 -12 22 51 b 99 560 17 346 93 457 b 85 768 104 631 75 686 b 340 901 94 850 168 901 b 711 714 579 901 711 851 m 199 642 b 351 549 199 581 233 549 b 576 650 478 549 576 579 b 378 740 576 708 522 740 b 199 642 279 740 199 722 "},"s":{"ha":688,"x_min":0,"x_max":0,"o":"m 482 488 b 343 567 482 538 443 561 b 60 728 150 581 60 608 b 347 897 60 824 126 897 b 625 775 546 897 625 851 b 558 704 625 732 600 704 b 322 764 494 704 439 764 b 201 697 253 764 201 744 b 390 617 201 647 254 626 b 679 342 583 600 679 539 b 339 -12 679 124 597 -12 b 13 246 96 -12 13 86 b 165 485 13 393 71 485 b 407 422 268 485 308 422 b 482 488 449 422 482 442 "},"t":{"ha":654,"x_min":0,"x_max":0,"o":"m 383 606 b 565 188 383 451 565 399 b 326 -7 565 44 475 -7 b 89 188 179 -7 89 44 b 271 606 89 399 271 451 b 199 724 271 711 244 724 b 69 693 144 724 107 693 b 19 767 32 693 19 731 b 326 897 19 856 79 897 b 635 767 575 897 635 856 b 585 693 635 731 622 693 b 456 724 547 693 510 724 b 383 606 410 724 383 711 "},"u":{"ha":851,"x_min":0,"x_max":0,"o":"m 290 -8 b 36 218 125 -8 39 74 b 147 579 33 382 142 457 b 125 826 154 656 117 744 b 219 903 135 881 168 903 b 313 826 274 903 308 879 b 256 613 315 743 250 675 b 415 514 260 532 310 514 b 589 626 540 514 585 564 b 546 819 593 693 543 753 b 635 904 550 865 579 904 b 724 828 690 904 715 878 b 696 590 732 761 690 678 b 840 144 701 449 843 339 b 711 -7 838 49 797 -7 b 592 139 638 -7 592 33 b 644 417 592 244 644 342 b 592 481 644 464 626 481 b 526 389 557 481 529 453 b 529 211 525 329 532 279 b 290 -8 521 42 438 -8 "},"v":{"ha":792,"x_min":0,"x_max":0,"o":"m 396 485 b 569 686 535 485 585 539 b 656 900 561 796 557 900 b 744 833 707 900 736 878 b 700 608 757 757 706 689 b 679 269 692 499 704 421 b 396 -10 647 90 575 -10 b 114 269 217 -10 146 90 b 92 608 88 421 100 499 b 49 833 86 689 35 758 b 139 900 56 878 86 900 b 222 689 238 900 233 799 b 396 485 206 542 258 485 "},"w":{"ha":1178,"x_min":0,"x_max":0,"o":"m 589 497 b 538 339 539 497 529 446 b 288 -10 561 104 511 -10 b 36 207 115 -10 39 71 b 153 575 33 375 147 451 b 121 821 158 653 111 736 b 210 899 129 876 161 899 b 265 699 289 899 306 824 b 397 528 232 590 250 528 b 521 700 543 528 561 599 b 589 896 483 821 499 896 b 657 700 678 896 694 821 b 781 528 615 599 633 528 b 911 699 928 528 946 590 b 968 899 871 824 889 899 b 1057 821 1017 899 1049 876 b 1024 575 1067 736 1018 653 b 1142 207 1029 451 1144 375 b 889 -10 1139 71 1063 -10 b 640 339 667 -10 618 104 b 589 497 647 446 639 497 "},"x":{"ha":883,"x_min":0,"x_max":0,"o":"m 442 561 b 419 551 433 561 426 558 b 378 457 389 515 378 493 b 428 193 378 376 426 338 b 222 -12 428 60 360 -12 b 14 217 93 -12 14 40 b 231 507 14 404 101 478 b 374 593 317 521 374 565 b 263 681 374 614 328 664 b 118 810 175 715 118 738 b 225 901 118 874 161 901 b 346 767 314 901 344 833 b 424 640 356 717 372 686 b 442 633 431 636 436 633 b 458 640 447 633 453 636 b 538 767 511 686 528 717 b 658 901 538 833 569 901 b 765 810 722 901 765 874 b 621 681 765 738 707 715 b 508 593 556 664 508 615 b 651 507 508 564 567 521 b 869 217 782 478 869 404 b 661 -12 869 40 790 -12 b 456 193 524 -12 456 60 b 506 457 456 338 506 376 b 464 551 506 492 494 515 b 442 561 457 558 450 561 "},"y":{"ha":833,"x_min":0,"x_max":0,"o":"m 414 -8 b 28 208 111 -8 28 57 b 194 439 28 335 85 439 b 475 393 300 439 383 393 b 576 478 529 393 576 408 b 515 538 576 522 547 538 b 260 499 444 538 375 499 b 157 571 181 499 160 529 b 163 658 154 597 161 633 b 129 833 165 714 125 772 b 219 901 135 881 168 901 b 264 689 325 901 314 796 b 407 576 238 631 265 576 b 571 699 592 576 600 642 b 628 903 536 792 533 903 b 718 828 685 903 710 878 b 690 601 726 765 685 685 b 785 222 697 411 789 371 b 414 -8 779 68 651 -8 "},"z":{"ha":713,"x_min":0,"x_max":0,"o":"m 458 593 b 336 483 358 544 336 514 b 396 439 336 451 361 439 b 557 467 446 439 499 467 b 696 254 654 467 696 388 b 357 -7 696 71 621 -7 b 17 243 96 -7 17 51 b 331 604 17 393 89 490 b 447 700 411 643 447 668 b 390 742 447 729 428 742 b 131 708 294 742 194 708 b 53 781 74 708 53 746 b 374 896 53 854 129 896 b 654 782 585 896 654 868 b 458 593 654 708 614 663 "},".":{"ha":424,"x_min":0,"x_max":0,"o":"m 211 -7 b 10 222 92 -7 10 49 b 211 486 10 401 79 486 b 414 222 346 486 414 401 b 211 -7 414 49 332 -7 "},",":{"ha":425,"x_min":0,"x_max":0,"o":"m 0 -82 b 67 -15 0 -40 29 -15 b 207 -72 132 -15 149 -72 b 301 36 257 -72 301 -28 b 264 78 301 67 289 78 b 133 21 225 78 217 21 b 10 231 54 21 10 86 b 213 488 10 399 86 488 b 415 199 329 488 415 408 b 118 -158 415 -43 289 -158 b 0 -82 33 -158 0 -133 "},":":{"ha":422,"x_min":0,"x_max":0,"o":"m 210 -7 b 8 192 90 -7 8 43 b 210 424 8 347 78 424 b 414 192 344 424 414 347 b 210 -7 414 43 331 -7 m 210 486 b 40 632 110 486 40 532 b 210 800 40 736 97 800 b 381 632 324 800 381 736 b 210 486 381 532 311 486 "},";":{"ha":424,"x_min":0,"x_max":0,"o":"m 0 -82 b 67 -17 0 -42 29 -17 b 207 -74 132 -17 149 -74 b 301 35 257 -74 301 -29 b 264 76 301 64 289 76 b 133 19 225 76 217 19 b 10 201 54 19 10 85 b 213 432 10 357 86 432 b 415 175 329 432 415 361 b 118 -158 415 -44 289 -158 b 0 -82 33 -158 0 -133 m 211 485 b 42 632 111 485 42 532 b 211 800 42 736 97 800 b 381 632 325 800 381 736 b 211 485 381 532 311 485 "},"“":{"ha":524,"x_min":0,"x_max":0,"o":"m 251 851 b 213 815 251 829 235 815 b 157 835 188 815 179 835 b 75 733 104 835 75 789 b 99 707 75 714 83 707 b 163 729 118 707 128 729 b 238 647 207 729 238 703 b 128 556 238 593 197 556 b 6 692 49 556 6 599 b 183 897 6 818 78 897 b 251 851 229 897 251 882 m 513 851 b 474 815 513 829 496 815 b 418 835 449 815 440 835 b 336 733 365 835 336 789 b 360 707 336 714 344 707 b 424 729 379 707 389 729 b 499 647 468 729 499 703 b 389 556 499 593 458 556 b 267 692 310 556 267 599 b 444 897 267 818 339 897 b 513 851 490 897 513 882 "},"”":{"ha":521,"x_min":0,"x_max":0,"o":"m 4 604 b 47 649 4 632 24 649 b 106 631 74 649 82 631 b 185 718 157 631 185 669 b 163 751 185 743 176 751 b 97 729 142 751 132 729 b 32 797 60 729 32 751 b 133 896 32 850 69 896 b 254 739 211 896 254 842 b 78 554 254 628 188 554 b 4 604 24 554 4 571 m 265 604 b 308 649 265 632 285 649 b 367 631 335 649 343 631 b 446 718 418 631 446 669 b 424 751 446 743 438 751 b 358 729 403 751 393 729 b 293 797 321 729 293 751 b 394 896 293 850 331 896 b 515 739 472 896 515 842 b 339 554 515 628 449 554 b 265 604 285 554 265 571 "},"‘":{"ha":263,"x_min":0,"x_max":0,"o":"m 251 851 b 213 815 251 829 235 815 b 157 835 188 815 179 835 b 75 733 104 835 75 789 b 99 707 75 714 83 707 b 163 729 118 707 128 729 b 238 647 207 729 238 703 b 128 556 238 593 197 556 b 6 692 49 556 6 599 b 183 897 6 818 78 897 b 251 851 229 897 251 882 "},"’":{"ha":260,"x_min":0,"x_max":0,"o":"m 4 604 b 47 649 4 632 24 649 b 106 631 74 649 82 631 b 185 718 157 631 185 669 b 163 751 185 743 176 751 b 97 729 142 751 132 729 b 32 797 60 729 32 751 b 133 896 32 850 69 896 b 254 739 211 896 254 842 b 78 554 254 628 188 554 b 4 604 24 554 4 571 "},"\"":{"ha":421,"x_min":0,"x_max":0,"o":"m 100 535 b 11 713 32 535 15 589 b 106 897 10 840 31 897 b 188 714 182 897 186 840 b 100 535 189 589 172 535 m 317 535 b 232 714 250 535 231 589 b 314 897 233 840 238 897 b 408 713 389 897 411 840 b 317 535 403 590 390 535 "},"'":{"ha":208,"x_min":0,"x_max":0,"o":"m 103 535 b 11 713 33 535 15 589 b 103 897 10 840 26 897 b 196 711 179 897 197 840 b 103 535 190 590 176 535 "}," ":{"ha":210,"x_min":0,"x_max":0,"o":""}}}
